/* XPM */
static char *_947bb94b4e04fd3d8b6e97faaaaa774DMhsGHANfMg9UIKL[] = {
/* columns rows colors chars-per-pixel */
"32 32 11 1 ",
"  c #422816",
". c #4E371C",
"X c #584529",
"o c #655131",
"O c #665232",
"+ c #655339",
"@ c #705C41",
"# c #756349",
"$ c #796442",
"% c #816D54",
"& c #948066",
/* pixels */
"##++XX#@###%@%%O@X++.X#@@XX+++++",
"#@o+X  #%##@O+X@@++XX+++@+@@++#%",
"#%#OO.+XXo+%#&%##.X.X##%@@@++##O",
"oooXXXX. +@@OX#.X##+X+..+#@O@X++",
"+OX@O@%%##@XX++OooXXX.X+XXX+@OXX",
"$X#O@.X@XXX.+.XX..+XX+XX+@+X....",
"#+%%++X+@@@X++#+X..+@+#####%#$#@",
"+X+X...XX@#.+#X@@+.++#&%@@@#+.++",
"X+XXX+XXXX@#%.@##@@.@++++#X.X.@%",
".+XX..X+@@++..#@++...X.XXX+@+XX+",
"X+X@#%+X.X++#+X  XX++++...++X+X+",
"X..++@.XXXXOO@@@&##%@@+...++.++X",
"+@+X...#@#%@+@@+@#+X@#++@X.+@#++",
"X.XXX++&+@++X+.X+++X+XX###@@@X+X",
" .#++###+%#@+X#oXX+@@#@+@##+##..",
".%@##XOX%#@.@@X..X.X@@+@@@@@XX++",
"#@#X.XXXX+++.XX@#+++X XXX#+X+X+&",
"X@#%+X@XX.XX++O##@+..X++@#@%%++@",
"##@##.@+XXXX.XX@XX+X..+XX@#%%#@X",
"..X##.+X+@XX++@++X++.+X++++X+++.",
"+#+.XX+XX#+%&#@@@#X XX@XX.XX# .+",
"XX+X.+%%%%@@XX++%+%&%#++.X+X@.XX",
"#   ++@+@#+XX.+X##+X##+@++@+@@#%",
"##X+X+@oX@....XXXX+o+#@@@++ X#X@",
"%+@XX..XX.X#..@X+X++#+XX+.@X+X%@",
"+X.X.X+++#XX+XX@@@@#+++.+++@+%OX",
"XOX+@X+@+@@+++X+++X+@X+++@X@X+X ",
"@##&@#++++@+++@X+. ..++@@.X++X+%",
"@#@#X+@++X@+XXXX++@+@XXX.X+@@@@%",
"XXOXXX...+@@#@@X@@#@#@&...X@#@.X",
"XX@...+@%&#XX@XX++@ .@@#@@+@X.X+",
"%@.@%@@+++@o++++X+X+@++XXO@@@%#&"
};
