/* XPM */
static char *_f08c454006643348fde03abec495508LYfG9oduOg0Aqa1A[] = {
/* columns rows colors chars-per-pixel */
"32 32 9 1 ",
"  c #85837A",
". c #76776F",
"X c #6C716B",
"o c #4B5145",
"O c #525A51",
"+ c #636C6D",
"@ c #454A42",
"# c #918E80",
"$ c #5B625E",
/* pixels */
"  .Xoo    .Xoo    .Xoo    .Xoo  ",
"X.XXoO.XX.XXoO.XX.XXoO.XX.XXoO.X",
"OO.XoOX+OO.XoOX+OO.XoOX+OO.XoOX+",
"OO.+OO.+OO.+OO.+OO.+OO.+OO.+OO.+",
"oOX+OO.XoOX+OO.XoOX+OO.XoOX+OO.X",
"oOXX  .+oOXX  .+oOXX  .+oOXX  .+",
"oo.XX.X+oo.XX.X+oo.XX.X+oo.XX.X+",
"o@@ooo@@@@o@@oo@@o@ooo@@@@o@@ooo",
"#                         .... $",
" ##                  ........ $O",
" ####             ........   $Oo",
"  #X++XX++++++++++++++++++++XOOo",
"  #+XXX+++++++++XXX++++++++X+oOO",
"   XXX++++++X+XXXX++++++++XX+oOO",
"   ++XX++++++XXXXXXXX+++X..XXOOo",
".  ++++++++++++++X....XXXXX.XOoo",
".  +++++++X++++XX...XXXXXXX..OoO",
".  X++++XX++++++++++XXXXXX...ooO",
".. X+++++XXX++++++X++XXX.... ooo",
"...XX++XXXX+++XX+++XX.....   ooo",
"X.X$OOOOO$$$$$$OOOOOO$$$$$$OoOoo",
".X$OOO$$$OO$$OOOOO$$$OO$$$OOOooo",
"XOOO$$$$OO$$$$OOOOO$$$$$$O$OOOoo",
"@oo@@ooo@@o@ooooo@@o@@ooooo@o@@@",
"    .Xoo    .Xoo    .Xoo    .Xoo",
".XX.XXoO.XX.XXoO.XX.XXoO.XX.XXoO",
"X+OO.XoOX+OO.XoOX+OO.XoOX+OO.XoO",
".+OO.+OO.+OO.+OO.+OO.+OO.+OO.+OO",
".XoOX+OO.XoOX+OO.XoOX+OO.XoOX+OO",
".+oOXX  .+oOXX  .+oOXX  .+oOXX  ",
"X+oo.XX.X+oo.XX.X+oo.XX.X+oo.XX.",
"o@@ooo@@@@o@@oo@@o@ooo@@@@o@@ooo"
};
