/* XPM */
static char *_c69ba904c1a4779daa615bdd2b1983fpwkqde2L6SKaPdA7[] = {
/* columns rows colors chars-per-pixel */
"32 32 7 1 ",
"  c #76776F",
". c #85837A",
"X c #525A51",
"o c #4B5145",
"O c #5B625E",
"+ c #636C6D",
"@ c #454A42",
/* pixels */
"  .....     ..... ...   ....    ",
".                               ",
". XXXXXXXXXXXXXXXXXXXXXXXXXXXX  ",
". XXooooooooXXXXoooXXXooooooXX .",
". XoO+OOOOOOOO+++OOOOOOOOOOOoX .",
". Xo+++++++O+++++++OOO+++++OoX .",
"  Xo++oo@@@@@@@@@@@@@@@oXX++oX .",
"  XX++o@@@@@@@@@@@@@@@@@oX++oX .",
"  XXO+@@@@OOOOOOOOOOOO@@@o+OXX  ",
". XoO+@@@@O++OO+O+++OO@@@o+OXX  ",
". XoO+@@@@OOo@@@@ooo+O@@@@++oX  ",
". XoOO@@@@OOo@@@@@oo+O@@@@+OoX  ",
". XoOO@@@oO+o@@@OO@o+O@@@@+OoX  ",
". XXOO@@@oO+oo@@ +@o Oo@@@OOoX  ",
"  XXO+@@@oO+oo@@ O@@ Oo@@@+OoX  ",
"  XXO+@@ooOOoo@@ O@@++oo@@+OoX .",
". XoO+@@ooO+ooo@ +@@ +oo@@+OXX .",
". XoO+@@ooO+oooo +@@ Oooo@+OXX .",
". XXOO@oooOO+++ +O@@ +ooo@OOXX .",
". XoOO@oooOOOOOOOO@o Oooo@OOXX  ",
"  XoOO@oo@@@@@@@@@oo+Oooo@OOXX  ",
". XoO+oooo@@@@@@oooo+O@oo@+OoX  ",
". XoO+++O+     +   ++O@oo@+OXX .",
"  oo+++OOOO+++OOO+++OO@oo@+OoX .",
"  oo+++Ooo@@@@@@@@@@@@@@oo+OoX .",
". oo++OOoo@@@@@ooooo@@@@o +OoX .",
". oo++OOooo@O+++   +     +OOoX .",
". XoOOOOooooOO+OOO++++OOOOOOoX  ",
"  XoooooooXooooXXXXooooXXoooXX .",
"  XXoooooXXXXXXXXXXXXXXXXXXXXX .",
"                               .",
".....    ... ..    .   ... ....."
};
