/* XPM */
static char *e71190f36661423dc627e558854b225eNGSgXIZyGIf8Lo6k[] = {
/* columns rows colors chars-per-pixel */
"32 32 8 1 ",
"  c #76776F",
". c #85837A",
"X c #636C6D",
"o c #5B625E",
"O c #4B5145",
"+ c #525A51",
"@ c #6C716B",
"# c #918E80",
/* pixels */
" .....       ..    .....   ...  ",
"..                              ",
". XoooooooooooooooooooooooooX  .",
". oOO+OOOOOOOOOOOO++++O+++++@@ .",
". o++OOOOOOOOOOOO++OO++++++ .X  ",
". o+OOOOOOOOOOOOOOOO++++++ ..X  ",
"  oOOO..... @@@@@@     @@@...X .",
"  o+OO @@XXX@@@@@      @@@...X .",
"  o+O+@@XXX@@@@@      @@@@...X .",
"  o+++@XXX@@@@@      @@@@@#..X .",
"  o+++XXX@@@@@      @@@@@@##.X .",
"  o+++XX@@@@@      @@@@@@@##.X .",
". o+++X@@@@@      @@@@@@@@##.X .",
". o+++@@@@@      @@@@@@@@X#.#X .",
". o+++@@@@      @@@@@@@@XX###X  ",
". o+++@@@      @@@@@@@@XXX###X  ",
". o+++@@      @@@@@@@@XXXX###X  ",
". o+++@      @@@@@@@@XXXX@###X  ",
"  o+++      @@@@@@@@XXXX@@###X  ",
"  o+++     @@@@@@@@XXXX@@@###X .",
"  o+++    @@@@@@@@XXXX@@@@###@ .",
"  o++o   @@@@@@@@XXXX@@@@ ###@  ",
". o++o  @@@@@@@@XXXX@@@@  ###@  ",
". X+oo @@@@@@@@XXXX@@@@   ###@  ",
". Xooo@@@@@@@@XXXX@@@@    ###@ .",
". o+oo@@@@@@@XXXX@@@@     ###@ .",
"  X+o@       .............###@ .",
"  Xo@     .................##@ .",
"  X@    .  .................#@  ",
". @XXXXXXXXXX@@X@@XX@@@@@@@@@   ",
".                              .",
"    ....  ...... .....   ......."
};
