/* XPM */
static char *_34726b4cc9a48cf855554a215e8f0c7evbrtsS0TvCY5cKQ[] = {
/* columns rows colors chars-per-pixel */
"32 32 7 1 ",
"  c #5A595A",
". c gray39",
"X c #6A6D6A",
"o c #787678",
"O c gray50",
"+ c #8B898B",
"@ c #9C999C",
/* pixels */
"@@@@@@@@@@@++@++@@@@@++++@@@@++X",
"@+++++OO++++O++OOO+++++++++OOOo ",
"@++OO++OOOOOOOOOO+OO++OOoOOOOOO ",
"@+OooXXooXXXXXXoXXXXoooOOoOOOoo ",
"@++o.   .         .   ....XoOoX ",
"@OOo @@@@@@@+++@@@@+@@@@@+.OOoo ",
"@+OX @++++++OO++++O++++++o.+OOo ",
"@++X.@++OOO++OO+OOOOOO+OOX.+OOO ",
"@+OX @+OOO++OOOOooOO+OOOoX.@+OO ",
"@+oX @+++OoOOOoooO++O+OOOX.@+Oo ",
"@+OX @++OoOoOooooooOoOO+Oo @OOo ",
"@OOX @+OOooooXXXoXooOO++Oo +OOO ",
"@OoX ++OOOoX       ++OOOoX +OOo ",
"+Ooo +++OOoo    ...@++OOOX.@OOo ",
"@+Oo ++OOOoX  ....X@++OOoo @OOo ",
"@+OX @+O+OoX .....X@++Oooo @OOX ",
"@++X @+++OoX ...X.X@++OOoX @OoX ",
"+++o ++OOooX ..X.XX@+OOOOX @Ooo ",
"++Oo @+OOOOo.XXXXXX@+OOooX @OOo ",
"@+Oo.@+OOooo+@@@@@@+++OOoX @+Oo ",
"@OOX.@+OooOo++++++++OOOOoX ++Oo ",
"@+Oo.@+OOO+OO++OOOO++OoOoX +Ooo ",
"@+Oo.@+OOOOO++OOooOOOOoooX.@OoX ",
"@+OO.+OOOOoooOoooO+OoooooX @OoX ",
"@OOO.+OOoooooooOOooooXooXX.+OOX ",
"@Ooo.OoXXXXXoXXXooXXXXXXXX.+OOo ",
"+OOOX.....  .. .      . ...+oOo ",
"+OO++@@@@@+++@@@@@@@@++++++Oooo ",
"OooO+++++OOOO++OOO++++OO++OOOoo ",
"oOOOOOOooooOoOOOooOOooooooOOooX ",
"oooO+OooooOOoooXXooooooXXXooXXX ",
"X                               "
};
